REM DIRINDEX 1\2\4,1\2\5,1\2\6,1\3\7,1\3\8,1\3\9,1\3\10
REM DIRNAME cjc057,folder01,folder02,folder03,folder04,folder05,folder06,folder07,folder08,folder09
TITLE ""
FILE "b_130.mp3" MP3
  TRACK 01 AUDIO
    TITLE "0:"
    INDEX 01 00:00:00
  TRACK 02 AUDIO
    TITLE "7:cjc057_08113"
    INDEX 01 00:00:15
  TRACK 03 AUDIO
    TITLE "0:"
    INDEX 01 00:01:42
  TRACK 04 AUDIO
    TITLE "8:cjc057_08114"
    INDEX 01 00:01:71
  TRACK 05 AUDIO
    TITLE "0:"
    INDEX 01 00:04:19
  TRACK 06 AUDIO
    TITLE "7:cjc057_08115"
    INDEX 01 00:05:22
  TRACK 07 AUDIO
    TITLE "0:"
    INDEX 01 00:07:03
  TRACK 08 AUDIO
    TITLE "8:cjc057_08116"
    INDEX 01 00:07:33
  TRACK 09 AUDIO
    TITLE "0:"
    INDEX 01 00:10:39
  TRACK 10 AUDIO
    TITLE "7:cjc057_08117"
    INDEX 01 00:11:46
  TRACK 11 AUDIO
    TITLE "0:"
    INDEX 01 00:13:04
  TRACK 12 AUDIO
    TITLE "8:cjc057_08118"
    INDEX 01 00:13:33
  TRACK 13 AUDIO
    TITLE "0:"
    INDEX 01 00:16:18
  TRACK 14 AUDIO
    TITLE "7:cjc057_08119"
    INDEX 01 00:17:23
  TRACK 15 AUDIO
    TITLE "0:"
    INDEX 01 00:18:44
  TRACK 16 AUDIO
    TITLE "8:cjc057_08120"
    INDEX 01 00:19:01
  TRACK 17 AUDIO
    TITLE "0:"
    INDEX 01 00:20:39
  TRACK 18 AUDIO
    TITLE "7:cjc057_08121"
    INDEX 01 00:21:45
  TRACK 19 AUDIO
    TITLE "0:"
    INDEX 01 00:23:30
  TRACK 20 AUDIO
    TITLE "8:cjc057_08122"
    INDEX 01 00:23:59
  TRACK 21 AUDIO
    TITLE "0:"
    INDEX 01 00:25:07
  TRACK 22 AUDIO
    TITLE "7:cjc057_08123"
    INDEX 01 00:26:15
  TRACK 23 AUDIO
    TITLE "0:"
    INDEX 01 00:27:32
  TRACK 24 AUDIO
    TITLE "8:cjc057_08124"
    INDEX 01 00:27:63
  TRACK 25 AUDIO
    TITLE "0:"
    INDEX 01 00:30:54
  TRACK 26 AUDIO
    TITLE "7:cjc057_08125"
    INDEX 01 00:31:59
  TRACK 27 AUDIO
    TITLE "0:"
    INDEX 01 00:33:22
  TRACK 28 AUDIO
    TITLE "8:cjc057_08126"
    INDEX 01 00:33:52
  TRACK 29 AUDIO
    TITLE "0:"
    INDEX 01 00:35:43
  TRACK 30 AUDIO
    TITLE "7:cjc057_08127"
    INDEX 01 00:36:48
  TRACK 31 AUDIO
    TITLE "0:"
    INDEX 01 00:37:65
  TRACK 32 AUDIO
    TITLE "8:cjc057_08128"
    INDEX 01 00:38:22
  TRACK 33 AUDIO
    TITLE "0:"
    INDEX 01 00:39:43
  TRACK 34 AUDIO
    TITLE "7:cjc057_08129"
    INDEX 01 00:40:50
  TRACK 35 AUDIO
    TITLE "0:"
    INDEX 01 00:42:23
  TRACK 36 AUDIO
    TITLE "8:cjc057_08130"
    INDEX 01 00:42:55
  TRACK 37 AUDIO
    TITLE "0:"
    INDEX 01 00:44:07
  TRACK 38 AUDIO
    TITLE "7:cjc057_08131"
    INDEX 01 00:45:16
  TRACK 39 AUDIO
    TITLE "0:"
    INDEX 01 00:46:53
  TRACK 40 AUDIO
    TITLE "8:cjc057_08132"
    INDEX 01 00:47:09
  TRACK 41 AUDIO
    TITLE "0:"
    INDEX 01 00:49:06
  TRACK 42 AUDIO
    TITLE "7:cjc057_08133"
    INDEX 01 00:50:09
  TRACK 43 AUDIO
    TITLE "0:"
    INDEX 01 00:51:16
  TRACK 44 AUDIO
    TITLE "8:cjc057_08134"
    INDEX 01 00:51:48
  TRACK 45 AUDIO
    TITLE "0:"
    INDEX 01 00:53:39
  TRACK 46 AUDIO
    TITLE "7:cjc057_08135"
    INDEX 01 00:54:44
  TRACK 47 AUDIO
    TITLE "0:"
    INDEX 01 00:56:00
  TRACK 48 AUDIO
    TITLE "8:cjc057_08136"
    INDEX 01 00:56:29
  TRACK 49 AUDIO
    TITLE "0:"
    INDEX 01 00:57:52
  TRACK 50 AUDIO
    TITLE "7:cjc057_08137"
    INDEX 01 00:58:58
  TRACK 51 AUDIO
    TITLE "0:"
    INDEX 01 01:00:13
  TRACK 52 AUDIO
    TITLE "8:cjc057_08138"
    INDEX 01 01:00:45
  TRACK 53 AUDIO
    TITLE "0:"
    INDEX 01 01:02:73
  TRACK 54 AUDIO
    TITLE "7:cjc057_08139"
    INDEX 01 01:04:03
  TRACK 55 AUDIO
    TITLE "0:"
    INDEX 01 01:05:46
  TRACK 56 AUDIO
    TITLE "8:cjc057_08140"
    INDEX 01 01:06:02
  TRACK 57 AUDIO
    TITLE "0:"
    INDEX 01 01:08:13
  TRACK 58 AUDIO
    TITLE "7:cjc057_08141"
    INDEX 01 01:09:18
  TRACK 59 AUDIO
    TITLE "0:"
    INDEX 01 01:10:35
  TRACK 60 AUDIO
    TITLE "8:cjc057_08142"
    INDEX 01 01:10:67
  TRACK 61 AUDIO
    TITLE "0:"
    INDEX 01 01:13:26
  TRACK 62 AUDIO
    TITLE "7:cjc057_08143"
    INDEX 01 01:14:31
  TRACK 63 AUDIO
    TITLE "0:"
    INDEX 01 01:16:01
  TRACK 64 AUDIO
    TITLE "8:cjc057_08144"
    INDEX 01 01:16:32
  TRACK 65 AUDIO
    TITLE "0:"
    INDEX 01 01:17:45
  TRACK 66 AUDIO
    TITLE "7:cjc057_08145"
    INDEX 01 01:18:49
  TRACK 67 AUDIO
    TITLE "0:"
    INDEX 01 01:19:66
  TRACK 68 AUDIO
    TITLE "8:cjc057_08146"
    INDEX 01 01:20:24
  TRACK 69 AUDIO
    TITLE "0:"
    INDEX 01 01:22:56
  TRACK 70 AUDIO
    TITLE "7:cjc057_08147"
    INDEX 01 01:23:60
  TRACK 71 AUDIO
    TITLE "0:"
    INDEX 01 01:25:13
  TRACK 72 AUDIO
    TITLE "8:cjc057_08148"
    INDEX 01 01:25:45
  TRACK 73 AUDIO
    TITLE "0:"
    INDEX 01 01:26:58
  TRACK 74 AUDIO
    TITLE "7:cjc057_08149"
    INDEX 01 01:27:63
  TRACK 75 AUDIO
    TITLE "0:"
    INDEX 01 01:29:07
  TRACK 76 AUDIO
    TITLE "8:cjc057_08150"
    INDEX 01 01:29:39
  TRACK 77 AUDIO
    TITLE "0:"
    INDEX 01 01:31:00
  TRACK 78 AUDIO
    TITLE "7:cjc057_08151"
    INDEX 01 01:32:08
  TRACK 79 AUDIO
    TITLE "0:"
    INDEX 01 01:33:17
  TRACK 80 AUDIO
    TITLE "8:cjc057_08152"
    INDEX 01 01:33:46
  TRACK 81 AUDIO
    TITLE "0:"
    INDEX 01 01:35:04
  TRACK 82 AUDIO
    TITLE "7:cjc057_08153"
    INDEX 01 01:36:07
  TRACK 83 AUDIO
    TITLE "0:"
    INDEX 01 01:37:24
  TRACK 84 AUDIO
    TITLE "8:cjc057_08154"
    INDEX 01 01:37:58
  TRACK 85 AUDIO
    TITLE "0:"
    INDEX 01 01:38:65
  TRACK 86 AUDIO
    TITLE "7:cjc057_08155"
    INDEX 01 01:39:72
  TRACK 87 AUDIO
    TITLE "0:"
    INDEX 01 01:41:48
  TRACK 88 AUDIO
    TITLE "8:cjc057_08156"
    INDEX 01 01:42:02
  TRACK 89 AUDIO
    TITLE "0:"
    INDEX 01 01:43:29
  TRACK 90 AUDIO
    TITLE "7:cjc057_08157"
    INDEX 01 01:44:36
  TRACK 91 AUDIO
    TITLE "0:"
    INDEX 01 01:46:00
  TRACK 92 AUDIO
    TITLE "8:cjc057_08158"
    INDEX 01 01:46:31
  TRACK 93 AUDIO
    TITLE "0:"
    INDEX 01 01:49:28
  TRACK 94 AUDIO
    TITLE "7:cjc057_08159"
    INDEX 01 01:50:37
  TRACK 95 AUDIO
    TITLE "0:"
    INDEX 01 01:51:66
  TRACK 96 AUDIO
    TITLE "8:cjc057_08160"
    INDEX 01 01:52:22
  TRACK 97 AUDIO
    TITLE "0:"
    INDEX 01 01:53:41
  TRACK 98 AUDIO
    TITLE "7:cjc057_08161"
    INDEX 01 01:54:46
  TRACK 99 AUDIO
    TITLE "0:"
    INDEX 01 01:56:10
  TRACK 100 AUDIO
    TITLE "8:cjc057_08162"
    INDEX 01 01:56:41
  TRACK 101 AUDIO
    TITLE "0:"
    INDEX 01 01:57:68
  TRACK 102 AUDIO
    TITLE "7:cjc057_08163"
    INDEX 01 01:58:74
  TRACK 103 AUDIO
    TITLE "0:"
    INDEX 01 02:00:33
  TRACK 104 AUDIO
    TITLE "8:cjc057_08164"
    INDEX 01 02:00:61
  TRACK 105 AUDIO
    TITLE "0:"
    INDEX 01 02:02:09
  TRACK 106 AUDIO
    TITLE "7:cjc057_08165"
    INDEX 01 02:03:18
  TRACK 107 AUDIO
    TITLE "0:"
    INDEX 01 02:04:39
  TRACK 108 AUDIO
    TITLE "8:cjc057_08166"
    INDEX 01 02:04:70
  TRACK 109 AUDIO
    TITLE "0:"
    INDEX 01 02:07:29
  TRACK 110 AUDIO
    TITLE "7:cjc057_08167"
    INDEX 01 02:08:35
  TRACK 111 AUDIO
    TITLE "0:"
    INDEX 01 02:09:71
  TRACK 112 AUDIO
    TITLE "8:cjc057_08168"
    INDEX 01 02:10:28
  TRACK 113 AUDIO
    TITLE "0:"
    INDEX 01 02:11:29
